<?xml version="1.0" encoding="UTF-8"?>
<svg xmlns="http://www.w3.org/2000/svg" viewBox="0 0 423.85 423.85">
  <g id="uuid-0777b14d-6ef4-48c7-b921-3c41dafb085c" data-name="Layer 2">
    <rect x="0" width="423.85" height="423.85" rx="42.89" ry="42.89" fill="#091414"/>
  </g>
  <g id="uuid-2dd9d41f-ce37-4b1c-b08d-824da7ba3b3e" data-name="Layer 1">
    <g>
      <g>
        <path d="M71.78,66.04c-8.35,3.27-17.42,3.63-23.35,4.96l-.36,11.62c6.9-1.33,13.07-3.15,15.37-3.51,2.3-.36,5.32.97,4.96,5.69-.36,4.72-.36,11.25-2.18,15.97-4.23,2.3-12.83,4.72-16.94,5.32-.36,6.78.36,21.05.36,25.89,0,5.08,1.09,10.16-5.32,11.74-6.66,1.57-12.1-.48-15.37-1.33-.36-12.58-.85-38.24-1.21-44.17-.48-5.93-1.69-36.66-1.21-45.98,11.25-3.87,24.93-6.53,31.22-7.5,6.29-.97,15.61-2.18,15.97,4.11.36,5.32,0,9.8-1.94,17.18Z" fill="#9a0000"/>
        <path d="M129.01,144.81c-2.54-1.81-4.48-6.53-4.48-11.74,0-1.81-.73-7.02-1.69-13.79l-16.94,3.39c-1.94,7.74-3.15,13.67-3.51,15-.6,4.23-3.87,7.14-8.23,7.74s-20.45,3.51-17.18-7.14c3.87-13.55,19.24-73.69,19.72-77.8.6-3.99,6.29-10.16,13.92-12.34,7.62-2.54,16.46-2.42,20.33-2.42s5.57,4.11,6.9,10.04,10.04,77.8,11.37,85.55c-7.38,6.41-17.67,5.45-20.21,3.51ZM118.36,91.81c-.6-3.39-1.21-7.87-2.06-11.86-1.09,4.36-2.3,9.32-3.27,13.07-.6,2.18-1.09,4.36-1.57,6.53,2.42-.6,5.32-1.09,7.87-1.94-.36-1.81-.6-3.75-.97-5.81Z" fill="#9a0000"/>
        <path d="M231.13,142.39c-5.93,2.54-11.5-1.09-16.58-3.27l-3.87-31.34c-5.93,14.88-9.56,22.99-11.37,27.47-1.09,2.66-1.81,4.36-2.18,5.2-1.33,2.9-3.39,2.42-4.72-1.09-.36-.97-1.09-2.78-2.06-5.57-1.81-4.72-4.48-13.07-9.68-28.19-1.33,12.71-2.06,20.57-2.9,25.29-.36,2.66-.73,4.72-1.09,6.05-1.33,5.69-3.75,8.83-8.95,8.23-7.26-.85-12.83-3.15-15.85-7.38,1.33-17.06,2.18-28.56,2.78-35.94.36-4.36.6-7.86.85-10.41.97-12.22,3.02-32.31,3.39-39.08,9.68-4.36,18.51-4.36,22.75-3.87,3.99.48,5.45,4.36,6.41,8.83.12,1.09.48,2.66.97,4.96.85,3.87,2.3,10.65,4.72,21.9,3.75-11.13,5.81-17.91,7.14-21.9.73-2.3,1.21-3.99,1.57-5.08,1.57-4.72,1.94-7.5,8.11-9.08,7.02-1.94,12.46.85,18.27,1.81,3.39,16.58,6.29,66.19,7.74,76.23,1.09,9.56.48,13.92-5.45,16.21Z" fill="#9a0000"/>
        <path d="M252.79,144.57c-9.2.6-10.65-4.72-10.65-12.95s.36-64.01.36-76.23c5.81-5.44,10.53-7.26,18.15-8.23,5.81-.6,9.08,3.63,9.68,10.04.48,6.41,0,66.67,0,80.1-3.51,3.51-9.32,6.66-17.54,7.26Z" fill="#9a0000"/>
        <path d="M312.08,143.72c-6.65.6-19.48.85-30.98-2.06-1.45-16.7-.48-67.28-.48-83.61,2.54-3.15,9.08-8.59,17.54-9.92,7.26-1.33,9.92,2.18,9.92,14.64,0,7.62-1.21,38.48-1.21,54.33,4.72,0,12.46-.6,21.78,0,2.06,5.44,3.15,11.74.85,17.42-4.24,9.8-10.77,8.59-17.42,9.2Z" fill="#9a0000"/>
        <path d="M360.84,141.67c-11.62,3.51-17.79,2.3-22.02,0-3.99-2.3-4.11-8.23-1.21-15.13,1.81-4.23,7.14-12.71,12.83-24.93-11.98-14.88-22.63-33.64-26.5-42.71,3.75-6.78,8.23-10.53,14.52-11.86,6.53-.97,7.99,2.78,11.01,6.41,2.18,2.9,8.47,13.43,13.43,22.39,3.03-6.9,6.41-17.3,9.08-21.54,3.39-5.81,7.87-7.26,14.28-7.74,6.9-.6,10.77,3.15,14.88,7.26-6.29,17.79-32.19,75.87-40.29,87.85Z" fill="#9a0000"/>
      </g>
      <g>
        <path d="M105.62,197.98c-3.5,13.29-10.22,36.35-21.9,75.33-12.56,7.45-26.86,8.18-30.37-4.23-.88-3.21-2.48-8.91-4.67-16.94-3.94-13.58-10.51-38.25-22.63-80.74,3.36-5.26,8.47-9.34,17.81-11.53,9.34-1.9,12.41,1.9,14.02,10.51.44,2.04,1.17,5.26,2.19,9.78,1.61,7.59,4.53,20.73,9.05,43.07l12.99-59.13c6.86-2.77,11.97-3.5,15.91-3.65,2.19-.15,4.23,0,5.84.44,6.86,1.9,10.66,5.55,6.28,20-.88,3.5-2.34,9.2-4.53,17.08Z" fill="#21409a"/>
        <path d="M127.66,277.11c-11.1.73-12.85-5.69-12.85-15.62s.44-77.23.44-91.98c7.01-6.57,12.7-8.76,21.9-9.93,7.01-.73,10.95,4.38,11.68,12.12.58,7.74,0,80.44,0,96.65-4.23,4.23-11.24,8.03-21.17,8.76Z" fill="#21409a"/>
        <path d="M216.14,257.54c-10.66,13.43-36.94,20.58-47.59,19.86-10.66-.73-10.66-4.82-10.66-11.39,0-2.04,0-6.72.15-14.16,0-12.56.15-36.06.58-79.71,11.24-10.07,29.05-15.18,44.09-12.85,18.25,2.77,28.47,20.73,29.2,45.55,1.17,33.73-5.11,39.27-15.77,52.71ZM185.04,191.41l.73,54.75c10.22-4.67,20.73-21.61,19.56-36.21-1.17-14.45-5.99-25.55-20.29-18.54Z" fill="#21409a"/>
        <path d="M288.7,187.47c-4.23,2.19-11.1,4.53-23.94,6.28l-1.02,12.26c7.45,0,20.44-2.04,26.86-3.21,1.02,4.82-.58,9.05-.58,14.75s-3.5,8.47-6.28,10.66c-2.77,2.19-9.49,2.48-19.56,5.26l-.44,13.72c9.49-1.9,19.71-5.69,33.14-8.03,1.02,11.1-.29,18.1-5.55,24.96-5.26,6.86-33.43,13.14-39.56,13.72-10.66.73-14.31-5.4-14.31-14.31s-.73-77.09-.15-90.23c4.82-4.38,16.5-8.76,25.84-10.37,9.49-1.75,20.73-2.77,33.43-3.07,2.19,4.53,1.75,8.03,1.02,16.06-.73,8.32-4.67,9.2-8.91,11.53Z" fill="#21409a"/>
        <path d="M347.54,277.84c-32.12,1.17-44.53-32.56-44.53-60.44s15.91-56.79,43.94-58.69c30.81-2.34,49.93,27.74,47.59,60.44-2.34,35.92-15.04,57.52-47.01,58.69ZM348.7,190.82c-9.2,1.17-16.06,16.64-16.06,27.74s6.28,28.47,17.37,28.47,16.06-13.58,16.06-28.47-6.86-29.35-17.37-27.74Z" fill="#21409a"/>
      </g>
      <g>
        <path d="M56.13,365.6c-3.22-.28-3.31-3.04-3.77-7.54s-1.47-10.86-1.93-13.89c-4.05-.55-7.45-.28-10.21.74-1.01,6.26-2.58,14.9-3.31,18.95-5.15,1.2-10.21.46-12.88-.55-2.76-1.01-2.02-3.96-1.56-7.18,1.1-8.1,9.94-53.08,11.04-59.06,6.72-3.96,12.6-4.23,16.19-4.23s10.86-.74,11.87,6.26c1.1,6.99,5.8,52.07,6.53,63.2-3.77,3.04-8.74,3.59-11.96,3.31ZM46.93,310.5c-1.01,3.5-3.04,13.25-3.77,17.2,1.38,0,3.4,0,6.26-.28-.28-3.59-2.02-11.68-2.48-16.93Z" fill="#f15a29"/>
        <path d="M109.49,333.04c2.12,3.31,8.74,14.35,11.5,19.59-2.02,3.77-3.68,8.56-9.94,10.95-6.16,2.21-8,0-9.94-3.68-.46-.74-1.1-1.93-1.93-3.5-1.47-2.67-3.77-7.18-7.45-14.26l-2.76.74c-.28,8.74-.18,13.25-.28,15.73-.09,1.38-.09,2.3-.09,2.67-2.85,3.96-6.16,5.61-10.86,5.98-5.24.46-7.91-.46-7.64-7.64.37-7.36.74-47.1.74-56.21,2.85-5.52,7.64-8.28,13.52-10.4,5.8-2.21,18.58-3.4,27.6,0,8.92,3.4,10.21,12.51,9.75,19.5-.28,6.9-6.72,15.73-12.24,20.51ZM89.25,314.64v11.5c6.35-2.48,10.86-6.53,10.86-10.86s-5.61-7.08-10.86-.64Z" fill="#f15a29"/>
        <path d="M168.18,360.91c-7.08,4.69-19.5,4.97-26.59,3.77-7.08-1.2-12.97-9.57-15.55-21.8-2.48-12.24-1.29-30.27,5.89-38.73,9.57-11.5,23.37-14.35,33.67-8.83,1.75,4.32,1.66,8.74.46,13.06-1.38,4.14-3.4,6.26-5.89,5.43-2.58-.74-6.72-2.02-10.12.83-3.4,2.85-7.27,12.24-5.06,22.72,2.21,10.58,9.29,8.83,16.38,6.35,4.69-1.75,6.72.92,7.18,5.06.37,3.04,1.01,6.9-.37,12.14Z" fill="#f15a29"/>
        <path d="M210.23,365.05c-5.06.28-5.61-2.67-5.61-5.7s-.37-11.04-.37-15-1.75-4.78-4.05-4.32l-1.66.28c-1.1.28-2.48.46-4.6,1.1v18.31c-2.3,2.67-5.8,5.8-12.05,6.81-6.99,1.01-7.82-2.76-7.82-7.45v-10.3c0-8.65-.09-24.2-.09-51.89,2.67-1.38,6.62-3.4,12.05-4.78,5.61-1.2,7.18,4.32,7.18,7.08v15.64c0,2.85-.28,5.7,2.39,4.97.64-.09,1.29-.28,2.12-.46,1.38-.28,3.59-.55,6.53-.92v-20.24c2.21-2.02,6.99-4.88,11.68-5.15,5.06-.37,6.53,2.12,6.53,7.18.09,1.84.09,5.15.09,9.94v48.57c-3.96,3.77-6.99,5.89-12.33,6.35Z" fill="#f15a29"/>
        <path d="M236.26,366.06c-6.99.46-8.1-3.59-8.1-9.84s.28-48.67.28-57.96c4.42-4.14,8-5.52,13.8-6.25,4.42-.46,6.9,2.76,7.36,7.63.37,4.88,0,50.69,0,60.9-2.67,2.67-7.08,5.06-13.34,5.52Z" fill="#f15a29"/>
        <path d="M291.55,362.66c-11.32,5.15-21.16,6.16-24.38-4.78-3.22-10.86-11.68-46.64-13.52-59.89,5.61-6.35,16.74-7.54,18.95.74.55,2.12,1.29,4.69,2.12,7.82,1.47,5.43,3.59,13.62,6.62,25.11,2.85-12.6,4.78-21.25,6.16-27.05.74-3.4,1.38-6.16,1.93-8.28,11.68-4.88,20.88-5.43,17.2,8.19s-11.04,49.31-15.09,58.14Z" fill="#f15a29"/>
        <path d="M343.17,309.58c-2.67,1.38-6.99,2.85-15.09,3.96l-.64,7.73c4.69,0,12.88-1.29,16.93-2.02.64,3.04-.37,5.7-.37,9.29s-2.21,5.34-3.96,6.72-5.98,1.56-12.33,3.31l-.28,8.65c5.98-1.2,12.42-3.59,20.88-5.06.64,6.99-.18,11.41-3.5,15.73-3.31,4.32-21.07,8.28-24.93,8.65-6.71.46-9.02-3.4-9.02-9.02s-.46-48.57-.09-56.85c3.04-2.76,10.4-5.52,16.28-6.53,5.98-1.1,13.06-1.75,21.07-1.93,1.38,2.85,1.1,5.06.64,10.12-.46,5.24-2.94,5.8-5.61,7.27Z" fill="#f15a29"/>
        <path d="M387.23,361.92c-8.56,6.16-21.25,3.96-26.4,2.21-5.24-1.75-7.82-3.5-8.28-8.56-.46-5.15,1.66-9.84,5.98-13.62,3.22,1.75,4.97,2.94,8.74,3.04,3.77.09,7.36-1.84,7.45-6.16,0-4.23-9.48-7.73-16.19-11.68-6.71-4.23-4.51-13.34,1.2-20.79,5.8-7.27,13.98-12.7,26.5-13.06,8.83-.28,18.03,7.27,8,20.98-4.32-.28-8.46.37-11.13,2.21s-2.12,4.88,1.29,7.17c3.31,2.21,8.28,5.61,13.52,11.5,1.01,11.78-1.84,20.51-10.67,26.77Z" fill="#f15a29"/>
      </g>
    </g>
  </g>
</svg>